<svg width="74" height="48" viewBox="0 0 74 48" fill="none" xmlns="http://www.w3.org/2000/svg">
<g clip-path="url(#clip0_1_377)">
<path d="M31.0298 45.08C33.875 45.08 36.1815 41.9102 36.1815 38C36.1815 34.0899 33.875 30.92 31.0298 30.92C28.1846 30.92 25.8782 34.0899 25.8782 38C25.8782 41.9102 28.1846 45.08 31.0298 45.08Z" fill="#3D4039"/>
<path d="M36.0217 38C36.0217 41.16 34.8236 43.68 33.386 43.68C31.9084 43.68 30.7502 41.12 30.7502 38C30.7502 34.84 31.9483 32.32 33.386 32.32C34.8236 32.28 36.0217 34.84 36.0217 38Z" fill="#D6E3DD"/>
<path d="M73.0816 35.72C73.0816 41.56 71.2845 46.28 69.0481 46.28C66.8117 46.28 65.0146 41.56 65.0146 35.72C65.0146 29.88 66.8117 25.16 69.0481 25.16C71.2845 25.12 73.0816 29.84 73.0816 35.72Z" fill="#3D4039"/>
<path d="M72.3228 35.9201C72.3228 39.8401 71.6039 43.0001 70.7253 43.0001C69.8468 43.0001 69.1279 39.8401 69.1279 35.9201C69.1279 32.0001 69.8468 28.8401 70.7253 28.8401C71.6039 28.8401 72.3228 32.0001 72.3228 35.9201Z" fill="#D6E3DD"/>
<path d="M72.2029 36.16C72.2029 38.8 71.7237 40.92 71.1246 40.92C70.5256 40.92 70.0464 38.8 70.0464 36.16C70.0464 33.52 70.5256 31.4 71.1246 31.4C71.7237 31.4 72.2029 33.52 72.2029 36.16Z" fill="#3D4039"/>
<path d="M71.8035 36.48C71.8035 37.92 71.524 39.08 71.2045 39.08C70.885 39.08 70.6055 37.92 70.6055 36.48C70.6055 35.04 70.885 33.88 71.2045 33.88C71.5639 33.88 71.8035 35.04 71.8035 36.48Z" fill="#3D4039"/>
<path d="M72.2029 35.4C72.2029 37.12 71.6838 38.52 71.0847 38.52C70.4857 38.52 69.9666 37.12 69.9666 35.4C69.9666 33.68 70.4857 32.28 71.0847 32.28C71.6838 32.28 72.2029 33.68 72.2029 35.4Z" fill="#3D4039"/>
<path d="M7.54779 48.0001C11.606 48.0001 14.8959 43.4871 14.8959 37.9201C14.8959 32.3531 11.606 27.8401 7.54779 27.8401C3.48956 27.8401 0.199707 32.3531 0.199707 37.9201C0.199707 43.4871 3.48956 48.0001 7.54779 48.0001Z" fill="#3D4039"/>
<path d="M13.6979 38.32C13.6979 43.04 11.741 46.84 9.30499 46.84C6.86894 46.84 4.91211 43 4.91211 38.32C4.91211 33.6 6.86894 29.8 9.30499 29.8C11.741 29.8 13.6979 33.6 13.6979 38.32Z" fill="#D6E3DD"/>
<path d="M12.6596 38.84C12.6596 42.04 11.5014 44.64 10.1037 44.64C8.70597 44.64 7.54785 42.04 7.54785 38.84C7.54785 35.64 8.70597 33.04 10.1037 33.04C11.5014 33.04 12.6596 35.64 12.6596 38.84Z" fill="#3D4039"/>
<path d="M55.1506 47.8401C58.8339 47.8401 61.8198 43.3271 61.8198 37.7601C61.8198 32.193 58.8339 27.6801 55.1506 27.6801C51.4673 27.6801 48.4814 32.193 48.4814 37.7601C48.4814 43.3271 51.4673 47.8401 55.1506 47.8401Z" fill="#3D4039"/>
<path d="M60.8213 37.7201C60.8213 41.6801 59.3837 44.8801 57.5866 44.8801C55.7895 44.8801 54.3518 41.6801 54.3518 37.7201C54.3518 33.7601 55.7895 30.5601 57.5866 30.5601C59.3837 30.5601 60.8213 33.7601 60.8213 37.7201Z" fill="#D6E3DD"/>
<path d="M60.4221 37.72C60.4221 40.88 59.2639 43.44 57.8263 43.44C56.3886 43.44 55.2305 40.88 55.2305 37.72C55.2305 34.56 56.3886 32 57.8263 32C59.2639 32 60.4221 34.56 60.4221 37.72Z" fill="#3D4039"/>
<path d="M59.4236 38.1601L60.6616 38.5201L60.6217 36.6001L59.6233 36.4401L60.462 35.3201L60.1025 33.5601L59.224 34.8401C59.0243 34.2801 58.7847 33.8401 58.5051 33.5601L58.3454 30.9601L56.7879 31.0001L57.2671 33.6401C56.9477 33.9601 56.708 34.4401 56.5483 35.0801L55.1506 33.6001L54.7912 35.6001L56.3486 36.9201C56.3486 36.9201 56.3486 36.9201 56.3486 36.9601C56.3486 37.0801 56.3486 37.2001 56.3486 37.2801L54.7512 37.1601V38.8001L56.5483 38.6801C56.5483 38.7201 56.5483 38.7601 56.5882 38.8001L54.871 40.2801L55.4701 41.8401L57.0675 39.9601C57.1473 40.0801 57.2272 40.1601 57.3071 40.2401L56.8279 43.6801L58.7048 43.7601L58.6649 40.2801C58.7847 40.1601 58.8646 40.0401 58.9844 39.8801L60.2224 41.3601L60.6616 39.4001L59.4636 38.5201C59.3837 38.4001 59.4236 38.2801 59.4236 38.1601Z" fill="#D6E3DD"/>
<path d="M71.7239 37.5601L72.243 37.9201L72.283 35.6801L71.8037 36.0801L72.243 34.1601L72.0433 32.0401L71.6041 33.6001C71.5242 32.9201 71.2846 29.4401 71.2846 29.4401L70.4859 29.4801C70.4859 29.4801 70.3661 33.1201 70.2862 33.8801L69.6073 32.0801L69.4076 34.4801C69.4076 34.4801 70.406 36.5201 70.406 36.6801L69.3677 36.3601V38.3601L70.2463 38.2001C70.4459 37.9601 69.5274 40.1201 69.5274 40.1201L70.0066 41.8001L70.8453 38.8001C70.8852 38.9201 70.5258 42.3601 70.5258 42.3601L71.3245 42.1601L71.4044 38.9201C71.4443 38.8001 71.7239 40.9201 71.7239 40.9201L72.0833 38.8801C72.0833 38.8801 71.7239 37.6801 71.7239 37.5601Z" fill="#D6E3DD"/>
<path d="M73.0416 36.84C73.0416 36.84 73.6007 26.4 72.1231 27.48C72.1231 27.48 70.326 29.16 70.4059 33.92C70.4059 33.92 70.5257 39.6 68.1296 40.08L61.5003 40.76C61.5003 40.76 62.6584 36.52 60.462 31.72C60.462 31.72 60.3022 23.4 57.8662 26.76C57.7065 26.96 57.7065 27.08 57.4269 27.72C56.7081 29.52 55.2704 33.72 55.4701 38.84V38.88C55.4301 39 55.3503 39.28 55.2305 39.64C55.0308 40.2 54.6714 40.96 54.1922 41.44C54.1922 41.44 50.7178 41.56 45.4863 41.68C33.5057 42 12.4199 42.36 3.39453 41.36C2.51596 41.28 1.79712 41.16 1.15816 41.04C1.15816 41.04 0.399389 39.84 0.079907 38.56C-0.0398987 38.12 -0.079834 37.68 -0.079834 37.28C-0.079834 37.28 -0.039899 28.12 2.27635 24.4C2.27635 24.4 2.07667 18.96 7.10851 17.44C7.10851 17.44 8.2267 16.36 9.90398 14.8C14.0173 11 21.4453 4.36004 23.2823 3.92004C23.2823 3.92004 38.0583 -0.399962 55.3902 2.40004C55.3902 2.40004 60.7415 1.92004 65.1344 7.64004C65.1344 7.64004 66.0529 8.88004 66.9714 10.68C67.6503 12.04 68.2893 13.68 68.489 15.4C68.489 15.4 68.489 15.4 68.5289 15.44C68.8085 15.72 70.6854 17.8 71.0448 18.6C71.4442 19.52 72.4026 24.12 72.8419 26.08C72.8819 26.08 75.3179 33.76 73.0416 36.84Z" fill="#EEBB2D"/>
<path d="M68.529 15.4C68.0098 15.64 63.1377 17.84 58.4653 18.44C58.4653 18.44 58.4653 18.44 58.4254 18.44C58.3056 18.52 54.3919 18.88 52.0757 17.28C52.0357 17.24 52.0357 17.2 52.0757 17.16C52.5149 16.88 54.5517 15.56 54.352 14.4C54.352 14.36 54.312 14.36 54.2721 14.36L10.1836 14.76C10.1037 14.76 10.1037 14.68 10.1437 14.64C14.2969 10.8 21.5651 4.32 23.4022 3.88C23.4022 3.88 38.1782 -0.440002 55.4702 2.36C55.4702 2.36 60.9013 1.88 65.2144 7.6C65.2144 7.6 68.0498 11.28 68.5689 15.32C68.5689 15.36 68.529 15.4 68.529 15.4Z" fill="#E59C0A"/>
<path d="M9.90388 14.8L8.66589 15.92L7.86719 15.64L8.06686 14.56C9.66427 11.92 12.0205 12.8 12.0205 12.8L9.90388 14.8Z" fill="#111111"/>
<path d="M9.86395 14.8401L8.66589 15.9201C8.66589 15.9201 7.86719 15.8801 7.86719 15.6401C7.86719 14.8801 8.06686 14.5601 8.06686 14.5601C8.42628 14.2001 9.86395 14.8401 9.86395 14.8401Z" fill="black"/>
<path d="M61.8995 4.80002C61.8995 4.80002 56.6281 0.88002 56.7079 5.20002C56.7079 5.20002 57.6264 16.48 59.4635 18.28C59.4635 18.28 67.2908 16.76 68.4489 15.48C68.8882 15 65.294 6.72002 61.8995 4.80002Z" fill="#434443"/>
<path d="M57.7063 8.39998C57.7063 8.39998 57.1073 4.83998 58.4651 4.47998C58.4651 4.47998 59.5433 4.27998 59.7031 4.51998C61.1807 6.59998 63.0576 10.04 64.096 14.44C64.096 14.44 61.2206 16.24 59.9826 15.28C58.7047 14.32 57.7063 8.39998 57.7063 8.39998Z" fill="#D6E3DD"/>
<path d="M61.2208 5.28003C61.2208 5.28003 65.7335 7.76003 66.9315 13.36C66.9315 13.36 64.7351 14.2 64.4955 14C64.2558 13.8 62.6185 8.00003 61.061 5.76003C61.061 5.80003 60.6617 5.16003 61.2208 5.28003Z" fill="#D6E3DD"/>
<path d="M23.6816 4.52006C24.9994 4.24006 43.9687 0.640059 54.9109 4.52006C55.2304 4.64006 55.47 4.96006 55.47 5.32006C55.51 7.52006 55.5499 15.1201 53.7528 14.4001C53.7528 14.4001 22.1241 14.2401 13.3783 14.5601C12.6195 14.6001 12.2202 13.6401 12.7393 13.1201C15.2552 10.6001 20.2471 5.84006 23.5218 4.60006C23.6017 4.56006 23.6416 4.52006 23.6816 4.52006Z" fill="#434443"/>
<path d="M16.0939 13.24C15.415 13.24 15.0955 12.44 15.5747 11.96C18.2504 9.40004 21.6848 6.52004 23.9212 5.68004C24.8397 5.48004 33.2261 3.92004 41.8122 3.92004C46.6444 3.92004 50.6778 4.40004 53.7928 5.36004C54.1122 5.44004 54.3119 5.72004 54.3119 6.04004C54.3519 8.72004 54.1522 11.28 53.8726 12.56C53.7928 12.88 53.5132 13.12 53.1538 13.12C51.0372 13.12 44.0486 13.08 36.4209 13.08C25.878 13.12 19.728 13.2 16.0939 13.24Z" fill="#D6E3DD"/>
<g opacity="0.47">
<path opacity="0.47" d="M45.2763 1.391L43.7168 0.0175781L28.1853 17.7111L29.7449 19.0846L45.2763 1.391Z" fill="white"/>
<path opacity="0.47" d="M52.6272 3.81672L48.5784 0.251099L33.0469 17.9447L37.0957 21.5103L52.6272 3.81672Z" fill="white"/>
</g>
<g opacity="0.44">
<path opacity="0.44" d="M61.6317 4.45428L59.7795 3.70728L55.2153 15.0611L57.0675 15.8081L61.6317 4.45428Z" fill="white"/>
<path opacity="0.44" d="M63.9384 4.32677L62.9011 3.90845L58.3369 15.2623L59.3741 15.6806L63.9384 4.32677Z" fill="white"/>
</g>
<path opacity="0.47" d="M65.1168 6.0158L64.2166 5.68652L61.8605 12.1489L62.7608 12.4782L65.1168 6.0158Z" fill="white"/>
<path opacity="0.47" d="M67.3516 7.03562L65.408 6.42627L63.1177 13.7553L65.0613 14.3646L67.3516 7.03562Z" fill="white"/>
<path d="M58.5051 16L58.9444 17.2C58.9444 17.2 65.8532 18 67.6503 15.8C67.6503 15.8 68.1295 10.8 60.6616 12.48C59.8629 12.68 60.6217 15.84 60.6217 15.84C60.6217 15.84 59.2639 16.24 58.5051 16Z" fill="#111111"/>
<path d="M71.7236 27.96C71.7236 27.96 72.4425 25.6 73.0015 29C73.5606 32.4 73.1214 35.92 72.9217 35.92C72.7619 35.92 73.0415 32.2 71.7236 27.96Z" fill="#111111"/>
<path d="M57.1074 28.24C57.1074 28.24 58.7847 28.68 60.5019 31.68C60.5019 31.68 60.7815 25.84 59.1042 25.84C59.1042 25.84 57.7863 25.76 57.1074 28.24Z" fill="#111111"/>
<path d="M73.0016 36.88C73.0016 36.88 73.5207 26.92 72.123 27.48C72.123 27.48 71.4042 28 70.6454 30.64C70.6454 30.64 70.286 28.04 71.7237 26.68C72.2029 26.24 72.9616 26.48 73.1214 27.12C73.7204 29.36 74.7587 34.48 73.0016 36.88Z" fill="#E59C0A"/>
<path d="M45.566 41.68C33.5854 42 12.4996 42.36 3.47427 41.36L3.3944 41.16C3.3944 41.16 3.15479 40.48 3.51421 39.8C3.83369 39.12 4.11324 38.2 4.35285 38.04L4.39278 38C4.6324 37.96 5.15155 29.24 9.38469 28.28C9.38469 28.28 17.6912 24.96 18.8094 25.48C19.9276 26 30.2708 25.56 30.2708 25.56C30.2708 25.56 40.055 26.92 42.3313 30.8C42.3313 30.8 44.8472 35.64 45.0069 38.2L45.566 41.68Z" fill="#434443"/>
<path d="M51.3967 28.84C51.3967 28.84 54.272 36.36 51.3967 38.12C51.3967 38.12 46.8041 40.12 46.5645 34.68C46.4846 32.8 48.8009 31.48 51.3967 28.84Z" fill="#3D4039"/>
<path d="M51.4765 28.76C51.4765 28.76 54.5515 36 51.3966 38.12C51.3966 38.12 46.8041 40.12 46.5644 34.68C46.4846 32.8 48.8807 31.36 51.4765 28.76Z" fill="#EF9C07"/>
<path d="M51.4764 28.76C51.4764 28.76 54.4716 35.96 51.5962 37.72C51.5962 37.72 47.2034 40 46.9637 34.56C46.8839 32.64 48.8806 32.04 51.4764 28.76Z" fill="#3D4039"/>
<path d="M1.19811 29.16C1.03836 30.32 0.23966 37 0.599077 37.52C0.599077 37.52 2.47603 39.04 3.63416 37.32C4.79228 35.64 3.31467 31.2 1.35785 29.12C1.27798 29.08 1.19811 29.08 1.19811 29.16Z" fill="#E59C0A"/>
<path d="M1.31769 30.48C1.11802 32.28 0.638796 36.48 0.838472 37.4C0.838472 37.48 0.918342 37.56 0.998213 37.64C1.39757 37.92 2.95504 38.84 3.95342 37.36C4.9518 35.76 3.71381 32.4 1.99659 30.28C1.75698 30 1.31769 30.16 1.31769 30.48Z" fill="#3D4039"/>
<path d="M7.90712 18.64C7.90712 18.64 51.3167 15.4 52.8343 16.68C52.8343 16.68 54.7512 15.32 54.3119 14.36L10.0636 14.76C10.0636 14.76 7.10842 17.24 7.14835 17.44C7.22822 17.6 7.5477 18.64 7.90712 18.64Z" fill="#F7D877"/>
<path d="M70.4058 33.92C70.4058 33.92 70.5256 39.6 68.1295 40.08L61.5002 40.76L61.8197 38.2L68.2493 37.44C68.2493 37.44 69.2077 37.32 70.3659 32.84C70.4457 32.6 70.4857 32.4 70.5655 32.28C70.4857 32.8 70.4058 33.36 70.4058 33.92Z" fill="#E59C0A"/>
<path d="M56.3086 31.36C56.3086 31.36 56.8677 23.84 59.8229 25.32C60.4619 25.64 61.1408 27.08 60.5018 31.6C60.5018 31.6 60.2222 25.48 58.7846 25.96C58.7846 25.96 57.9859 25.76 56.3086 31.36Z" fill="#EEBB2D"/>
<path d="M0.39917 25.8L52.4747 26.28" stroke="#4B4C4B" stroke-miterlimit="10"/>
<path d="M0.39917 26.8401L52.4747 27.3601" stroke="#4B4C4B" stroke-miterlimit="10"/>
<path d="M0.39917 27.92L52.4747 28.4" stroke="#4B4C4B" stroke-miterlimit="10"/>
<path d="M0.39917 28.9601L52.4747 29.4401" stroke="#4B4C4B" stroke-miterlimit="10"/>
<path d="M0.39917 30.04L52.4747 30.52" stroke="#4B4C4B" stroke-miterlimit="10"/>
<path d="M0.39917 31.0801L52.4747 31.5601" stroke="#4B4C4B" stroke-miterlimit="10"/>
<path d="M0.39917 32.16L52.4747 32.64" stroke="#4B4C4B" stroke-miterlimit="10"/>
<path d="M0.39917 33.2001L52.4747 33.6801" stroke="#4B4C4B" stroke-miterlimit="10"/>
<path d="M0.39917 34.28L52.4747 34.76" stroke="#4B4C4B" stroke-miterlimit="10"/>
<path d="M0.39917 35.3201L52.4747 35.8001" stroke="#4B4C4B" stroke-miterlimit="10"/>
<path d="M0.39917 36.3601L52.4747 36.8801" stroke="#4B4C4B" stroke-miterlimit="10"/>
<path d="M0.39917 37.4401L52.4747 37.9201" stroke="#4B4C4B" stroke-miterlimit="10"/>
<path d="M0.39917 38.48L52.4747 39" stroke="#4B4C4B" stroke-miterlimit="10"/>
<path d="M45.566 41.68C33.5854 42 12.4996 42.36 3.47427 41.36L3.3944 41.16C3.3944 41.16 3.15479 40.48 3.51421 39.8C3.83369 39.12 4.11324 38.2 4.35285 38.04L4.39278 38L9.74411 39.56C9.74411 39.56 36.7004 40.16 37.4192 39.96C38.1381 39.76 45.0469 38.2 45.0469 38.2L45.3663 40.08L45.566 41.68Z" fill="#E59C0A"/>
<path d="M55.5498 38.8V38.84L55.3102 39.6C55.1105 40.16 54.7511 40.92 54.2719 41.4C54.2719 41.4 50.7975 41.52 45.566 41.64C33.5855 41.96 12.4997 42.32 3.47429 41.32C2.59572 41.24 1.87688 41.12 1.23792 41C1.23792 41 0.47915 39.8 0.159668 38.52C1.47753 39.08 9.18503 41.96 20.8861 41.04C20.8861 41.04 45.8456 41.2 48.641 39.68C49.5995 39.16 52.5946 37.8 52.5946 37.8C52.5946 37.8 53.1138 38.92 53.4732 39.08C53.9524 39.36 55.5498 38.8 55.5498 38.8Z" fill="#EEBB2D"/>
<path d="M31.1893 34.32H16.2535C14.9357 34.32 13.8574 33.24 13.8574 31.92C13.8574 30.6 14.9357 29.52 16.2535 29.52H31.2292C32.5471 29.52 33.6254 30.6 33.6254 31.92C33.6254 33.2 32.5471 34.32 31.1893 34.32Z" fill="#BFC4C1"/>
<path d="M71.1245 18.5999C71.1245 18.5999 68.4888 23.1199 54.3916 19.8399C54.3916 19.8399 54.152 18.6799 53.7527 18.1599C53.7527 18.1599 58.9443 19.7599 68.4888 15.4799C68.5287 15.4799 68.5687 15.4399 68.6086 15.4399C68.8482 15.7199 70.7651 17.7999 71.1245 18.5999Z" fill="#F7D877"/>
<path d="M2.35601 24.36C2.35601 24.36 1.47744 28.2 7.50766 29.12C7.50766 29.12 16.2135 25.56 17.8908 25.56C17.9308 25.56 6.18979 23 2.35601 24.36Z" fill="#E59C0A"/>
<path d="M3.4743 40.04C3.79378 39.36 4.07333 38.44 4.31294 38.28L4.35287 38.24C4.59249 38.2 5.11164 29.48 9.34478 28.52C9.34478 28.52 17.6513 25.2 18.7695 25.72C19.8877 26.24 30.2309 25.8 30.2309 25.8C30.2309 25.8 40.015 27.16 42.2913 31.04C42.2913 31.04 44.8073 35.88 44.967 38.44L45.4862 41.64H46.2449L45.7657 38.36C45.566 35.64 43.09 30.88 42.9702 30.64C40.5741 26.48 30.79 25.08 30.3507 25.04H30.2708H30.191C30.191 25.04 26.0377 25.2 22.763 25.2C19.7679 25.2 19.2088 25.04 19.1289 25.04C18.9292 24.96 18.7296 24.92 18.45 24.92C16.4533 24.92 10.1035 27.4 9.10517 27.8C5.23145 28.72 4.19313 34.72 3.75385 37.24C3.71391 37.44 3.67398 37.64 3.67398 37.8C3.43436 38.04 3.27462 38.44 3.03501 38.96C2.91521 39.2 2.83534 39.48 2.71553 39.68C2.23631 40.68 2.47592 41.24 2.47592 41.24L3.39443 41.3201C3.43436 41.3201 3.11488 40.76 3.4743 40.04Z" fill="#2A2B2A"/>
<path d="M38.5774 27.8C38.5774 27.8 47.6427 27.28 51.7161 24.96C51.7161 24.96 42.4112 20.72 30.231 25.56L38.5774 27.8Z" fill="#E59C0A"/>
<path d="M10.3433 21.36C10.3433 21.36 19.8878 21.76 20.6466 21.52C20.6466 21.52 23.9612 18.36 28.5937 21.48C28.5937 21.48 41.333 21.36 42.4512 21.16C42.4512 21.16 39.6957 23.48 39.2963 24.96C39.2963 24.96 31.8284 24.72 30.3109 25.52C28.7534 26.32 23.7216 31.64 18.6099 25.64C18.6099 25.64 12.5397 24.36 11.3816 24.52C11.3416 24.56 10.9822 23.4 10.3433 21.36Z" fill="#434443"/>
<path d="M10.9421 23.3599L19.0889 24.4799C19.0889 24.4799 23.6016 31.5199 29.8315 24.5599L40.0949 23.5199L40.7738 22.7599C40.7738 22.7599 29.3922 23.7199 28.8331 24.0399C28.8331 24.0399 24.2006 30.2399 20.3669 24.0799L10.6626 22.3199L10.9421 23.3599Z" fill="#D6E3DD"/>
<path d="M27.116 24.6799C27.116 25.7599 25.8781 26.6799 24.3605 26.6799C22.843 26.6799 21.605 25.7999 21.605 24.6799C21.605 23.5999 22.843 22.6799 24.3605 22.6799C25.8781 22.6799 27.116 23.5599 27.116 24.6799Z" fill="#D6E3DD"/>
<path d="M11.4214 25.48C11.4214 25.48 5.03175 24.12 3.71389 24.76C3.71389 24.76 2.63563 24.68 2.35609 24.36C2.35609 24.36 2.23628 21.56 4.0733 19.4C4.79214 18.56 5.79052 17.84 7.18825 17.4C7.18825 17.4 8.22657 19.28 9.26488 20.4C9.70417 20.88 10.1435 21.2 10.4629 21.2C10.4629 21.2 12.1003 25.04 11.4214 25.48Z" fill="#D6E3DD"/>
<path d="M54.3917 19.84C54.3917 19.84 53.3933 26.28 49.879 24.76C49.879 24.76 42.3312 24.88 39.0166 25.28C39.0166 25.28 39.9351 22.2 43.6491 20.32C44.5277 19.88 45.566 19.48 46.764 19.24C46.764 19.24 51.6761 17.8 52.0355 17.24C52.0355 17.24 54.0323 17.64 54.3917 19.04C54.4316 19.24 54.4316 19.52 54.3917 19.84Z" fill="#D6E3DD"/>
<path opacity="0.62" d="M9.26482 20.4C9.14502 20.4 5.67065 20.64 4.07324 19.4C4.79208 18.56 5.79046 17.84 7.18819 17.4C7.18819 17.4 8.22651 19.28 9.26482 20.4Z" fill="white"/>
<path opacity="0.57" d="M54.3518 19L54.3119 19.04C54.3119 19.04 49.2401 22.04 43.5693 20.28C44.4479 19.84 45.4862 19.44 46.6843 19.2C46.6843 19.2 51.5963 17.76 51.9557 17.2C51.9957 17.24 53.9924 17.64 54.3518 19Z" fill="white"/>
<path d="M65.5337 16.92C65.5337 16.92 69.4473 24.72 66.0528 38.04" stroke="#E59C0A" stroke-width="0.5" stroke-miterlimit="10" stroke-linecap="round"/>
<path d="M70.2858 36.2C70.0462 37.84 69.5271 39.8 68.1693 40.08L61.54 40.76C61.54 40.76 61.9793 38.12 61.7796 37.08L63.4969 35.36C63.4969 35.36 69.0878 38.4 69.7268 36.16C69.8865 35.76 70.0462 35.84 70.2858 36.2Z" fill="#EEBB2D"/>
</g>
<defs>
<clipPath id="clip0_1_377">
<rect width="74" height="48" fill="white"/>
</clipPath>
</defs>
</svg>
