<svg width="156" height="82" viewBox="0 0 156 82" fill="none" xmlns="http://www.w3.org/2000/svg">
<path d="M45.4427 23.4115C46.6278 23.4115 47.5885 22.4508 47.5885 21.2657C47.5885 20.0806 46.6278 19.1199 45.4427 19.1199C44.2576 19.1199 43.2969 20.0806 43.2969 21.2657C43.2969 22.4508 44.2576 23.4115 45.4427 23.4115Z" fill="#F79A6F"/>
<path d="M54.1531 19.1199C52.9649 19.1199 52.0073 20.0832 52.0073 21.2657C52.0073 22.454 52.9706 23.4115 54.1531 23.4115C55.3357 23.4115 56.299 22.4482 56.299 21.2657C56.299 20.0832 55.3414 19.1199 54.1531 19.1199Z" fill="#F79A6F"/>
<path d="M5.37622 15.3994C6.02227 15.3994 6.55296 14.8687 6.55296 14.2226C6.55296 13.5766 6.02227 13.0459 5.37622 13.0459H4.55711C3.91106 13.0459 3.38037 13.5766 3.38037 14.2226C3.38037 14.8687 3.91106 15.3994 4.55711 15.3994H5.37622Z" fill="#F79A6F"/>
<path d="M5.35254 18.9238C5.35254 19.5699 5.88323 20.1006 6.52928 20.1006H7.34838C7.99444 20.1006 8.52512 19.5699 8.52512 18.9238C8.52512 18.2778 7.99444 17.7471 7.34838 17.7471H6.52928C5.88323 17.7471 5.35254 18.2778 5.35254 18.9238Z" fill="#F79A6F"/>
<path d="M1.99584 17.7471H1.17674C0.530687 17.7471 0 18.2778 0 18.9238C0 19.5699 0.530687 20.1006 1.17674 20.1006H1.99584C2.6419 20.1006 3.17259 19.5699 3.17259 18.9238C3.16682 18.2778 2.6419 17.7471 1.99584 17.7471Z" fill="#F79A6F"/>
<path d="M5.93579 27.1436H5.11668C4.47063 27.1436 3.93994 27.6742 3.93994 28.3203C3.93994 28.9663 4.47063 29.497 5.11668 29.497H5.93579C6.58184 29.497 7.11253 28.9663 7.11253 28.3203C7.11253 27.6742 6.58184 27.1436 5.93579 27.1436Z" fill="#F79A6F"/>
<path d="M63.9533 26.9302C63.9533 25.6438 63.9936 24.3575 63.959 23.0769C63.9244 21.854 63.9417 20.6254 63.9244 19.4025C63.9071 18.1796 63.636 17.0375 62.9842 16.0569C61.5998 13.9687 59.6789 12.9708 57.1235 12.9708C56.0968 12.9708 55.0296 12.965 54.0029 12.9708C53.328 12.9766 52.9703 12.9708 52.9703 12.9708C51.9609 11.2057 48.0038 4.27214 47.1039 2.73777C46.1349 1.08225 44.687 0.211235 42.7662 0.0439537C41.8721 -0.036803 33.7906 0.015112 32.2332 0.032417C30.3296 0.0554904 28.6856 0.597714 27.5089 2.06287C26.6956 3.07233 22.6866 10.4154 22.0405 11.7364C21.5906 12.6593 21.2156 13.0631 20.0043 13.0631C19.8197 13.0573 16.226 13.0631 13.8495 13.0689H9.76549C9.11944 13.0689 8.58875 13.5995 8.58875 14.2456C8.58875 14.8917 9.11944 15.4223 9.76549 15.4223H12.1363H12.765C13.4111 15.4223 13.9418 15.953 13.9418 16.5991C13.9418 17.2451 13.4111 17.7758 12.765 17.7758H12.1363H11.7498C11.1037 17.7758 10.5731 18.3065 10.5731 18.9526C10.5731 19.5986 11.1037 20.1293 11.7498 20.1293H12.1363H13.8956C14.5417 20.1293 15.0724 20.66 15.0724 21.306C15.0724 21.9521 14.5417 22.4828 13.8956 22.4828H12.8516H12.1363H9.9097H6.97362C6.32756 22.4828 5.79688 23.0135 5.79688 23.6595C5.79688 24.3056 6.32756 24.8363 6.97362 24.8363H9.18289H12.1305H12.8458H13.1688C13.8149 24.8363 14.3456 25.367 14.3456 26.013C14.3456 26.6591 13.8149 27.1897 13.1688 27.1897H12.1305H10.1116C9.46554 27.1897 8.93485 27.7204 8.93485 28.3665C8.93485 29.0125 9.46554 29.5432 10.1116 29.5432C10.1116 29.5432 17.2124 29.5432 26.2226 29.5432C26.5975 30.9103 28.2703 31.9429 30.2777 31.9429C32.2909 31.9429 33.9637 30.9103 34.3386 29.5432C38.3476 29.5432 42.4258 29.5432 46.2099 29.5375C46.579 30.9046 48.2576 31.9371 50.2708 31.9371C52.2839 31.9371 53.9625 30.8988 54.3317 29.5317C59.4482 29.5259 62.9899 29.5202 63.313 29.5144C63.9071 29.5028 63.9994 29.324 63.9879 28.851C63.9706 28.1934 63.9533 27.5647 63.9533 26.9302ZM42.2528 3.6434C43.2968 3.59725 43.9544 4.18562 44.4044 4.97588C45.3331 6.60255 46.2964 8.20038 47.2424 9.81552C47.75 10.675 49.0017 12.9708 49.0017 12.9708C49.0017 12.9708 45.933 12.9766 43.9602 12.9708C42.9969 12.9708 42.7604 12.4055 42.4201 11.7768C41.076 9.29637 37.8861 3.67224 37.8861 3.67224C37.8861 3.67224 41.0703 3.69531 42.2528 3.6434ZM20.3677 25.9611C20.3677 25.9611 20.2985 18.7045 20.2985 18.1911C20.2985 17.1528 20.8003 16.5299 21.8329 16.5875C22.9173 16.651 23.3845 16.0453 23.8287 15.2493C24.5844 13.8937 29.0721 6.09494 29.9662 4.60671C30.2143 4.19716 30.8084 3.68954 31.3102 3.63763C32.4754 3.51072 33.3465 3.48188 34.2002 4.39328C34.702 4.9355 35.0366 5.63347 35.4115 6.27953C36.5133 8.17731 37.592 10.0866 38.6822 11.9902C38.8264 12.2382 39.1898 12.9131 39.1955 12.9304H37.6093C36.6806 12.9304 35.9249 13.6918 35.9249 14.6148V14.6782C35.9249 14.6898 35.9249 14.7013 35.9249 14.7186V14.9378C35.9249 15.8665 36.6863 16.6222 37.6093 16.6222H40.4127C40.4357 16.6222 40.4588 16.6164 40.4819 16.6164L58.1157 16.6395C59.0963 16.7548 60.1808 18.0354 60.2096 18.9929C60.2096 18.9929 60.2788 25.3785 60.2788 25.7938L20.3677 25.9611Z" fill="#F79A6F"/>
<path d="M49.7714 7.42871L52.9707 12.9709H49.0021L46.0571 7.80014L49.7714 7.42871Z" fill="url(#paint0_linear_67_810)"/>
<path d="M15.4104 81.7144C12.5045 81.7144 9.8799 81.0184 7.53647 79.6264C5.19304 78.2344 3.34642 76.3533 1.9966 73.9832C0.665534 71.6131 0 69.0266 0 66.2238C0 63.4022 0.674908 60.8064 2.02472 58.4362C3.37454 56.0473 5.22116 54.1568 7.56459 52.7648C9.90803 51.3729 12.5139 50.6769 15.3823 50.6769C17.5195 50.6769 19.4973 51.0437 21.3158 51.7773C23.1344 52.4921 24.7373 53.489 26.1246 54.7682L22.5251 59.9317C21.5127 59.0476 20.4628 58.3798 19.3755 57.9284C18.2881 57.4769 17.0789 57.2512 15.7479 57.2512C14.1918 57.2512 12.7483 57.6462 11.4172 58.4362C10.1049 59.2075 9.05502 60.2797 8.26762 61.6529C7.49898 63.026 7.11466 64.5497 7.11466 66.2238C7.11466 67.8792 7.50835 69.384 8.29575 70.7384C9.08314 72.0927 10.133 73.165 11.4453 73.955C12.7764 74.7262 14.2106 75.1119 15.7479 75.1119C17.0789 75.1119 18.2881 74.8861 19.3755 74.4347C20.4816 73.9832 21.5408 73.3342 22.5532 72.4878L26.1246 77.6231C24.756 78.9022 23.1531 79.9086 21.3158 80.6422C19.4786 81.357 17.5101 81.7144 15.4104 81.7144Z" fill="#F79A6F"/>
<path d="M38.0269 80.8961H30.8841V38.6287H38.0269V80.8961Z" fill="#F79A6F"/>
<path d="M65.7346 51.2976H72.9055V80.8679H66.7469L66.2689 77.0305C65.1815 78.3661 63.738 79.4477 61.9382 80.2754C60.1384 81.103 58.3199 81.5169 56.4827 81.5169C54.1205 81.5169 52.0583 81.0184 50.296 80.0214C48.5525 79.0056 47.2027 77.5478 46.2466 75.648C45.2905 73.7293 44.8124 71.4438 44.8124 68.7915V51.2976H52.0114V67.5218C52.0114 69.8543 52.5738 71.6601 53.6987 72.9392C54.8423 74.2183 56.4264 74.8579 58.4512 74.8579C59.7822 74.8579 61.0008 74.5381 62.1069 73.8986C63.2318 73.259 64.1129 72.3937 64.7503 71.3027C65.4065 70.2117 65.7346 69.0078 65.7346 67.6911V51.2976Z" fill="#F79A6F"/>
<path d="M88.6037 80.8961H81.4046V57.9284H77.1865V51.2976H81.3765V44.2436L88.6037 42.5225V51.2976H95.0996V57.9284H88.6037V80.8961Z" fill="#F79A6F"/>
<path d="M112.461 81.7144C109.556 81.7144 106.931 81.0184 104.587 79.6264C102.244 78.2344 100.397 76.3533 99.0476 73.9832C97.7165 71.6131 97.051 69.0266 97.051 66.2238C97.051 63.4022 97.7259 60.8064 99.0757 58.4362C100.426 56.0473 102.272 54.1568 104.616 52.7648C106.959 51.3729 109.565 50.6769 112.433 50.6769C114.57 50.6769 116.548 51.0437 118.367 51.7773C120.185 52.4921 121.788 53.489 123.176 54.7682L119.576 59.9317C118.564 59.0476 117.514 58.3798 116.426 57.9284C115.339 57.4769 114.13 57.2512 112.799 57.2512C111.243 57.2512 109.799 57.6462 108.468 58.4362C107.156 59.2075 106.106 60.2797 105.319 61.6529C104.55 63.026 104.166 64.5497 104.166 66.2238C104.166 67.8792 104.559 69.384 105.347 70.7384C106.134 72.0927 107.184 73.165 108.496 73.955C109.827 74.7262 111.262 75.1119 112.799 75.1119C114.13 75.1119 115.339 74.8861 116.426 74.4347C117.533 73.9832 118.592 73.3342 119.604 72.4878L123.176 77.6231C121.807 78.9022 120.204 79.9086 118.367 80.6422C116.53 81.357 114.561 81.7144 112.461 81.7144Z" fill="#F79A6F"/>
<path d="M144.33 50.6769C146.673 50.6769 148.726 51.1847 150.488 52.2005C152.251 53.1975 153.61 54.6553 154.566 56.574C155.522 58.4739 156 60.7499 156 63.4022V80.8961H148.801V64.672C148.801 62.3394 148.229 60.5336 147.086 59.2545C145.961 57.9754 144.377 57.3358 142.333 57.3358C141.002 57.3358 139.774 57.6556 138.649 58.2952C137.543 58.9347 136.671 59.8 136.034 60.891C135.397 61.982 135.078 63.1859 135.078 64.5027V80.8961H127.935V38.6287H135.078V54.5142C136.221 53.3668 137.628 52.4451 139.296 51.7491C140.965 51.0343 142.642 50.6769 144.33 50.6769Z" fill="#F79A6F"/>
<defs>
<linearGradient id="paint0_linear_67_810" x1="49.2023" y1="9.67293" x2="52.3161" y2="15.8748" gradientUnits="userSpaceOnUse">
<stop stop-color="#3B3D73" stop-opacity="0"/>
<stop offset="0.760417" stop-color="#3B3D73"/>
</linearGradient>
</defs>
</svg>
