<svg width="42" height="42" viewBox="0 0 42 42" fill="none" xmlns="http://www.w3.org/2000/svg">
<path d="M25.4626 3.5H16.5376C13.3876 3.5 12.6876 5.07502 12.2851 7.01752L10.8501 13.8775H31.1501L29.7151 7.01752C29.3126 5.07502 28.6126 3.5 25.4626 3.5Z" stroke="#878ADB" stroke-width="2.5" stroke-linecap="round" stroke-linejoin="round"/>
<path d="M33.6701 25.0598C33.8101 26.5473 32.6201 27.825 31.0976 27.825H28.7176C27.3526 27.825 27.1601 27.2475 26.9151 26.5125L26.6524 25.7598C26.3024 24.7273 26.0751 24.0273 24.2376 24.0273H17.7451C15.925 24.0273 15.645 24.8148 15.33 25.7598L15.0675 26.5125C14.8225 27.23 14.63 27.825 13.265 27.825H10.885C9.36247 27.825 8.17247 26.5473 8.31247 25.0598L9.02999 17.3249C9.20499 15.4174 9.57247 13.8599 12.8975 13.8599H29.0849C32.4099 13.8599 32.7776 15.4174 32.9526 17.3249L33.6701 25.0598Z" stroke="#878ADB" stroke-width="2.5" stroke-linecap="round" stroke-linejoin="round"/>
<path d="M10.8503 10.0625H9.57275" stroke="#878ADB" stroke-width="2.5" stroke-linecap="round" stroke-linejoin="round"/>
<path d="M32.4274 10.0625H31.1499" stroke="#878ADB" stroke-width="2.5" stroke-linecap="round" stroke-linejoin="round"/>
<path d="M13.3877 18.9527H17.1852" stroke="#878ADB" stroke-width="2.5" stroke-linecap="round" stroke-linejoin="round"/>
<path d="M24.8149 18.9527H28.6124" stroke="#878ADB" stroke-width="2.5" stroke-linecap="round" stroke-linejoin="round"/>
<path d="M21 29.75V31.5" stroke="#878ADB" stroke-width="2.5" stroke-linecap="round" stroke-linejoin="round"/>
<path d="M21 36.75V38.5" stroke="#878ADB" stroke-width="2.5" stroke-linecap="round" stroke-linejoin="round"/>
<path d="M5.25 31.5L3.5 38.5" stroke="#878ADB" stroke-width="2.5" stroke-linecap="round" stroke-linejoin="round"/>
<path d="M36.75 31.5L38.5 38.5" stroke="#878ADB" stroke-width="2.5" stroke-linecap="round" stroke-linejoin="round"/>
</svg>
