<svg width="36" height="32" viewBox="0 0 36 32" fill="none" xmlns="http://www.w3.org/2000/svg">
<path d="M29.3813 14.4563C29.3813 14.4563 29.8562 16.7812 29.9625 17.2687H27.875C28.0812 16.7125 28.875 14.55 28.875 14.55C28.8625 14.5688 29.0812 13.9812 29.2062 13.6187L29.3813 14.4563ZM36 5V27C36 28.6562 34.6562 30 33 30H3C1.34375 30 0 28.6562 0 27V5C0 3.34375 1.34375 2 3 2H33C34.6562 2 36 3.34375 36 5ZM9.53125 20.7L13.4812 11H10.825L8.36875 17.625L8.1 16.2812L7.225 11.8188C7.08125 11.2 6.6375 11.025 6.0875 11H2.04375L2 11.1938C2.9875 11.4438 3.86875 11.8062 4.6375 12.2625L6.875 20.7H9.53125ZM15.4312 20.7125L17.0063 11H14.4937L12.925 20.7125H15.4312ZM24.175 17.5375C24.1875 16.4313 23.5125 15.5875 22.0688 14.8938C21.1875 14.45 20.65 14.15 20.65 13.6938C20.6625 13.2812 21.1063 12.8562 22.0938 12.8562C22.9125 12.8375 23.5125 13.0312 23.9625 13.225L24.1875 13.3313L24.5312 11.2312C24.0375 11.0375 23.25 10.8188 22.2812 10.8188C19.8 10.8188 18.0563 12.1438 18.0438 14.0312C18.025 15.425 19.2937 16.2 20.2437 16.6688C21.2125 17.1438 21.5438 17.4563 21.5438 17.875C21.5312 18.525 20.7563 18.825 20.0375 18.825C19.0375 18.825 18.5 18.6687 17.6812 18.3062L17.35 18.15L17 20.3312C17.5875 20.6 18.675 20.8375 19.8 20.85C22.4375 20.8563 24.1562 19.55 24.175 17.5375ZM33 20.7125L30.975 11H29.0312C28.4312 11 27.975 11.175 27.7188 11.8062L23.9875 20.7125H26.625C26.625 20.7125 27.0562 19.5125 27.15 19.2563H30.375C30.45 19.6 30.675 20.7125 30.675 20.7125H33Z" fill="#FDDACC"/>
</svg>
